<mxfile host="app.diagrams.net" agent="Mozilla/5.0 (Macintosh; Intel Mac OS X 10_15_7) AppleWebKit/537.36 (KHTML, like Gecko) Chrome/128.0.0.0 Safari/537.36" version="24.7.12">
  <diagram name="Page-1" id="MJ7UO6rs83uKcMV7KQuw">
    <mxGraphModel dx="1195" dy="756" grid="1" gridSize="10" guides="1" tooltips="1" connect="1" arrows="1" fold="1" page="1" pageScale="1" pageWidth="827" pageHeight="1169" math="0" shadow="0">
      <root>
        <mxCell id="0" />
        <mxCell id="1" parent="0" />
        <mxCell id="KpJjI8jlmmT4lDEsBd6w-1" value="Customer" style="swimlane;whiteSpace=wrap;html=1;" parent="1" vertex="1">
          <mxGeometry x="270" y="470" width="180" height="130" as="geometry" />
        </mxCell>
        <mxCell id="KpJjI8jlmmT4lDEsBd6w-11" value="&lt;font style=&quot;font-size: 14px;&quot;&gt;+ firstname: string&lt;/font&gt;&lt;div style=&quot;font-size: 14px;&quot;&gt;&lt;div style=&quot;&quot;&gt;&lt;font style=&quot;font-size: 14px;&quot;&gt;+ lastname: string&lt;/font&gt;&lt;/div&gt;&lt;/div&gt;" style="text;html=1;align=left;verticalAlign=middle;whiteSpace=wrap;rounded=0;" parent="KpJjI8jlmmT4lDEsBd6w-1" vertex="1">
          <mxGeometry x="10" y="40" width="140" height="30" as="geometry" />
        </mxCell>
        <mxCell id="KpJjI8jlmmT4lDEsBd6w-12" value="Bank" style="swimlane;whiteSpace=wrap;html=1;" parent="1" vertex="1">
          <mxGeometry x="450" y="10" width="430" height="290" as="geometry" />
        </mxCell>
        <mxCell id="KpJjI8jlmmT4lDEsBd6w-15" value="&lt;font style=&quot;font-size: 14px;&quot;&gt;+ customers: Customer[]&lt;/font&gt;&lt;div&gt;&lt;font style=&quot;font-size: 14px;&quot;&gt;+ bankAccounts: BankAccount[]&lt;/font&gt;&lt;/div&gt;" style="text;html=1;align=left;verticalAlign=middle;whiteSpace=wrap;rounded=0;" parent="KpJjI8jlmmT4lDEsBd6w-12" vertex="1">
          <mxGeometry x="10" y="50" width="310" height="30" as="geometry" />
        </mxCell>
        <mxCell id="KpJjI8jlmmT4lDEsBd6w-16" value="" style="endArrow=none;html=1;rounded=0;" parent="KpJjI8jlmmT4lDEsBd6w-12" edge="1">
          <mxGeometry width="50" height="50" relative="1" as="geometry">
            <mxPoint y="110" as="sourcePoint" />
            <mxPoint x="430" y="110" as="targetPoint" />
          </mxGeometry>
        </mxCell>
        <mxCell id="KpJjI8jlmmT4lDEsBd6w-18" value="&lt;font style=&quot;font-size: 14px;&quot;&gt;+ registerCustomer(firstname: string, lastname: string): void&lt;/font&gt;&lt;div&gt;&lt;span style=&quot;font-size: 14px;&quot;&gt;&lt;br&gt;&lt;/span&gt;&lt;div&gt;&lt;font style=&quot;font-size: 14px;&quot;&gt;+ createAccount(customer: Customer): void&lt;/font&gt;&lt;/div&gt;&lt;/div&gt;&lt;div&gt;&lt;font style=&quot;font-size: 14px;&quot;&gt;&lt;br&gt;&lt;/font&gt;&lt;/div&gt;&lt;div&gt;&lt;font style=&quot;font-size: 14px;&quot;&gt;+ credit(account: BankAccount, amount: float): bool&lt;/font&gt;&lt;/div&gt;&lt;div&gt;&lt;font style=&quot;font-size: 14px;&quot;&gt;&lt;br&gt;&lt;/font&gt;&lt;/div&gt;&lt;div&gt;&lt;font style=&quot;font-size: 14px;&quot;&gt;+ debit(account: BankAccount, amount: float): bool&lt;/font&gt;&lt;/div&gt;" style="text;html=1;align=left;verticalAlign=top;whiteSpace=wrap;rounded=0;" parent="KpJjI8jlmmT4lDEsBd6w-12" vertex="1">
          <mxGeometry x="10" y="130" width="410" height="150" as="geometry" />
        </mxCell>
        <mxCell id="KpJjI8jlmmT4lDEsBd6w-13" value="" style="endArrow=none;html=1;rounded=0;entryX=1;entryY=0.75;entryDx=0;entryDy=0;exitX=0;exitY=0.75;exitDx=0;exitDy=0;" parent="1" source="KpJjI8jlmmT4lDEsBd6w-1" target="KpJjI8jlmmT4lDEsBd6w-1" edge="1">
          <mxGeometry width="50" height="50" relative="1" as="geometry">
            <mxPoint x="280" y="690" as="sourcePoint" />
            <mxPoint x="330" y="640" as="targetPoint" />
          </mxGeometry>
        </mxCell>
        <mxCell id="KpJjI8jlmmT4lDEsBd6w-19" value="BankAccount" style="swimlane;whiteSpace=wrap;html=1;" parent="1" vertex="1">
          <mxGeometry x="800" y="470" width="200" height="140" as="geometry" />
        </mxCell>
        <mxCell id="KpJjI8jlmmT4lDEsBd6w-20" value="&lt;span style=&quot;font-size: 14px;&quot;&gt;+ owner: Customer&lt;/span&gt;&lt;div&gt;&lt;span style=&quot;font-size: 14px;&quot;&gt;+ balance: float&lt;/span&gt;&lt;/div&gt;" style="text;html=1;align=left;verticalAlign=middle;whiteSpace=wrap;rounded=0;" parent="KpJjI8jlmmT4lDEsBd6w-19" vertex="1">
          <mxGeometry x="10" y="40" width="140" height="30" as="geometry" />
        </mxCell>
        <mxCell id="KpJjI8jlmmT4lDEsBd6w-21" value="" style="endArrow=none;html=1;rounded=0;exitX=0;exitY=0.75;exitDx=0;exitDy=0;" parent="KpJjI8jlmmT4lDEsBd6w-19" edge="1">
          <mxGeometry width="50" height="50" relative="1" as="geometry">
            <mxPoint y="100" as="sourcePoint" />
            <mxPoint x="200" y="100" as="targetPoint" />
          </mxGeometry>
        </mxCell>
        <mxCell id="KpJjI8jlmmT4lDEsBd6w-23" value="" style="endArrow=diamondThin;endFill=1;endSize=24;html=1;rounded=0;entryX=1;entryY=1;entryDx=0;entryDy=0;exitX=0.5;exitY=0;exitDx=0;exitDy=0;" parent="1" source="KpJjI8jlmmT4lDEsBd6w-19" target="KpJjI8jlmmT4lDEsBd6w-12" edge="1">
          <mxGeometry width="160" relative="1" as="geometry">
            <mxPoint x="540" y="390" as="sourcePoint" />
            <mxPoint x="700" y="390" as="targetPoint" />
          </mxGeometry>
        </mxCell>
        <mxCell id="cjhmEHQMmM_7FbxrQ6Ui-1" value="" style="endArrow=open;endFill=1;endSize=12;html=1;rounded=0;entryX=0;entryY=0.5;entryDx=0;entryDy=0;exitX=1;exitY=0.5;exitDx=0;exitDy=0;" edge="1" parent="1" source="KpJjI8jlmmT4lDEsBd6w-1" target="KpJjI8jlmmT4lDEsBd6w-19">
          <mxGeometry width="160" relative="1" as="geometry">
            <mxPoint x="650" y="440" as="sourcePoint" />
            <mxPoint x="810" y="440" as="targetPoint" />
          </mxGeometry>
        </mxCell>
        <mxCell id="cjhmEHQMmM_7FbxrQ6Ui-2" value="" style="endArrow=diamondThin;endFill=0;endSize=24;html=1;rounded=0;entryX=0;entryY=1;entryDx=0;entryDy=0;exitX=0.5;exitY=0;exitDx=0;exitDy=0;" edge="1" parent="1" source="KpJjI8jlmmT4lDEsBd6w-1" target="KpJjI8jlmmT4lDEsBd6w-12">
          <mxGeometry width="160" relative="1" as="geometry">
            <mxPoint x="650" y="310" as="sourcePoint" />
            <mxPoint x="810" y="310" as="targetPoint" />
          </mxGeometry>
        </mxCell>
      </root>
    </mxGraphModel>
  </diagram>
</mxfile>
